<?xml version="1.0" encoding="UTF-8" standalone="no"?>
<!-- Created with Inkscape (http://www.inkscape.org/) -->

<svg
   version="1.1"
   id="svg2"
   xml:space="preserve"
   width="617.96002"
   height="245.64"
   viewBox="0 0 617.96002 245.64"
   sodipodi:docname="f3.eps"
   xmlns:inkscape="http://www.inkscape.org/namespaces/inkscape"
   xmlns:sodipodi="http://sodipodi.sourceforge.net/DTD/sodipodi-0.dtd"
   xmlns="http://www.w3.org/2000/svg"
   xmlns:svg="http://www.w3.org/2000/svg"><defs
     id="defs6" /><sodipodi:namedview
     id="namedview4"
     pagecolor="#ffffff"
     bordercolor="#666666"
     borderopacity="1.0"
     inkscape:pageshadow="2"
     inkscape:pageopacity="0.0"
     inkscape:pagecheckerboard="0" /><g
     id="g8"
     inkscape:groupmode="layer"
     inkscape:label="ink_ext_XXXXXX"
     transform="matrix(1.3333333,0,0,-1.3333333,0,245.64)"><g
       id="g10"
       transform="scale(0.1)"><path
         d="m 2927.44,501.852 c -37.31,-47.813 -66.68,-81.442 -88.05,-100.704 -12.72,-11.757 -24.49,-17.648 -35.23,-17.648 -5.88,0 -8.81,3.91 -8.81,11.762 0,37.218 45.54,118.527 136.64,243.949 2.95,4.898 4.43,9.789 4.43,14.699 0,22.531 -13.73,33.789 -41.17,33.789 -19.59,0 -36.72,-9.59 -51.43,-28.777 -29.39,-27.844 -52.91,-41.75 -70.54,-41.75 -11.76,0 -21.55,6.316 -29.4,18.969 56.82,42.781 85.26,79.711 85.26,110.859 0,28.191 -23.05,51.551 -69.07,70.031 -2.95,-19.59 -12.77,-52.422 -29.39,-98.461 -22.56,-62.711 -46.56,-112.679 -72.01,-149.898 -34.3,-49.012 -70.06,-96.512 -107.27,-142.543 -2.97,-3.918 -4.43,-7.848 -4.43,-11.758 0,-6.871 2.95,-10.281 8.81,-10.281 5.88,0 12.28,3.89 19.12,11.75 44.08,55.84 74.43,95.988 91.11,120.5 22.52,33.308 40.18,60.269 52.91,80.832 4.88,-17.641 18.58,-26.453 41.15,-26.453 22.52,0 41.14,5.89 55.84,17.621 4.89,0 7.35,-2.449 7.35,-7.34 0,-5.871 -7.85,-19.09 -23.52,-39.68 -39.2,-52.89 -61.23,-95.519 -66.13,-127.84 -2.93,-21.57 0.74,-40.671 11.01,-57.308 10.3,-16.652 28.17,-25 53.66,-25 32.32,0 67.59,23.039 105.82,69.078 1.7,2.07 6.19,8.27 13.34,18.41 0,0.719 -0.16,1.442 -0.16,2.16 0,20 3.42,40.371 10.16,61.032"
         style="fill:#2f3083;fill-opacity:1;fill-rule:nonzero;stroke:none"
         id="path12" /><path
         d="m 3247.96,431.27 c -9.82,-9.329 -19.12,-13.981 -27.95,-13.981 -8.8,0 -13.24,5.391 -13.24,16.191 0,3.899 1,9.29 2.97,16.168 10.76,42.102 41.13,100.411 91.11,174.883 3.89,7.809 -0.99,14.918 -14.68,21.301 -13.73,6.359 -26.98,9.547 -39.67,9.547 -16.7,0 -27.93,-3.93 -33.81,-11.758 -7.89,-27.441 -34.82,-67.601 -80.84,-120.492 -46.05,-52.91 -89.63,-94.551 -130.8,-124.938 -21.54,-15.64 -32.32,-14.691 -32.32,2.957 0,9.774 2.93,22.524 8.84,38.204 20.53,54.859 66.59,112.418 138.13,172.679 71.5,60.239 122.91,86.93 154.3,80.071 11.73,-1.961 22.03,-8.793 30.85,-20.543 6.84,3.89 10.3,9.281 10.3,16.14 0,10.781 -3.46,20.09 -10.3,27.942 -22.55,30.339 -44.57,45.539 -66.13,45.539 -62.69,0.98 -131.27,-35.5 -205.74,-109.481 -52.11,-51.75 -85.9,-101.699 -101.54,-149.847 15.78,20.23 32.97,42.949 51.6,68.269 13.69,19.609 23.01,29.41 27.91,29.41 1.95,0 2.93,-1.472 2.93,-4.402 0,-12.738 -8.32,-32.328 -24.96,-58.789 -31.8,-46.41 -54.26,-78.899 -67.48,-97.68 0.41,-17.851 5.64,-35.269 16.03,-52.211 13.71,-21.527 31.35,-32.34 52.89,-32.34 15.67,0 46.02,24.032 91.12,72.02 34.27,38.211 62.69,72.973 85.23,104.332 -12.48,-35.27 -20.29,-60.242 -23.44,-74.941 -1.03,-6.872 -1.54,-13.75 -1.54,-20.571 0,-33.308 20.68,-54.398 62.07,-63.199 25.06,-5.27 64.18,26.219 117.28,94.199 0.2,19.102 2.29,37.629 6.2,55.633 -43.21,-53.512 -68.38,-83.691 -75.32,-90.312"
         style="fill:#2f3083;fill-opacity:1;fill-rule:nonzero;stroke:none"
         id="path14" /><path
         d="m 3009.88,595.129 c 0,2.93 -0.98,4.402 -2.93,4.402 -4.9,0 -14.22,-9.801 -27.91,-29.41 -18.63,-25.32 -35.82,-48.039 -51.6,-68.269 -6.74,-20.661 -10.16,-41.032 -10.16,-61.032 0,-0.718 0.16,-1.441 0.16,-2.16 13.22,18.781 35.68,51.27 67.48,97.68 16.64,26.461 24.96,46.051 24.96,58.789"
         style="fill:#2f3083;fill-opacity:1;fill-rule:nonzero;stroke:none"
         id="path16" /><path
         d="m 3729.96,699.469 c 7.83,15.652 11.75,30.863 11.75,45.562 0,34.278 -16.17,52.879 -48.49,55.84 -15.71,-1.992 -28.44,-4.422 -38.22,-7.351 2.94,-32.34 -2.45,-72.532 -16.16,-120.52 -10.8,-40.168 -30.37,-82.789 -58.77,-127.84 -31.38,-49.969 -64.2,-88.691 -98.47,-116.101 -28.42,-23.5 -50.47,-35.27 -66.14,-35.27 -19.61,0 -28.41,17.133 -26.44,51.441 2.93,50.93 26.44,107.282 70.55,168.989 15.64,22.543 42.59,52.91 80.8,91.133 -11.76,0 -22.78,6.347 -33.05,19.097 -10.29,12.731 -20.37,19.11 -30.14,19.11 -4.92,0 -10.8,-0.989 -17.61,-2.95 -12.74,-3.929 -32.86,-23.031 -60.28,-57.3 -18.61,-26.457 -37.71,-52.438 -57.3,-77.899 -5.88,-7.859 -4.42,-14.211 4.39,-19.101 -10.62,-20.707 -18.24,-42.309 -23.1,-64.727 17.5,21.68 37.89,47.09 61.34,76.477 7.82,9.793 13.71,14.703 17.62,14.703 6.86,0 7.36,-6.371 1.49,-19.102 -6.88,-14.699 -18.72,-33.801 -35.49,-57.32 -18.3,-26.77 -35.33,-50.121 -51.16,-70.391 -0.01,-1.019 -0.09,-2.051 -0.09,-3.078 0,-75.461 32.34,-113.172 97.01,-113.172 27.42,0 54.37,13.242 80.82,39.692 26.44,26.449 56.33,63.179 89.65,110.211 17.63,26.457 43.57,67.617 77.87,123.449 37.23,32.328 59.76,57.789 67.62,76.418"
         style="fill:#2f3083;fill-opacity:1;fill-rule:nonzero;stroke:none"
         id="path18" /><path
         d="m 3403.73,593.66 c 5.87,12.731 5.37,19.102 -1.49,19.102 -3.91,0 -9.8,-4.91 -17.62,-14.703 -23.45,-29.387 -43.84,-54.797 -61.34,-76.477 -3.91,-18.004 -6,-36.531 -6.2,-55.633 15.83,20.27 32.86,43.621 51.16,70.391 16.77,23.519 28.61,42.621 35.49,57.32"
         style="fill:#2f3083;fill-opacity:1;fill-rule:nonzero;stroke:none"
         id="path20" /><path
         d="m 3979.8,517.238 c -8.85,0 -24.51,-14.218 -47.05,-42.617 -26.45,-33.32 -53.4,-57.82 -80.82,-73.473 -23.52,-13.738 -46.54,-20.597 -69.04,-20.597 -34.34,0 -51.47,16.66 -51.47,49.988 0,9.781 1.49,20.57 4.43,32.332 24.65,95.988 84.79,175.84 180.38,239.527 14.82,9.793 27.63,14.692 38.47,14.692 12.78,0 19.2,-6.371 19.2,-19.09 0,-10.801 -5.92,-23.52 -17.75,-38.211 -8.89,-10.789 -44.4,-39.687 -106.53,-86.699 -47.36,-36.262 -76.99,-71.039 -88.79,-104.352 -1.99,-6.867 -0.99,-11.258 2.93,-13.218 4.89,-1 8.81,1.96 11.76,8.82 6.84,18.59 34.77,42.609 83.75,72 68.58,42.109 108.75,68.09 120.53,77.879 31.31,25.472 47.01,52.91 47.01,82.312 0,24.457 -13.24,40.649 -39.67,48.5 -40.19,10.758 -62.24,18.59 -66.13,23.5 -55.86,0.981 -114.16,-37.582 -174.9,-115.679 -60.74,-78.122 -86.68,-145.973 -77.87,-203.551 8.83,-57.59 41.13,-89.313 96.99,-95.192 62.68,-6.839 120.51,21.782 173.4,85.922 29.39,35.91 44.1,60.207 44.1,72.848 0,2.891 -1,4.359 -2.93,4.359"
         style="fill:#2f3083;fill-opacity:1;fill-rule:nonzero;stroke:none"
         id="path22" /><path
         d="m 4410.37,1011.02 c -199.89,-244.942 -303.23,-389.43 -310.1,-433.54 -0.98,-9.789 0.98,-14.679 5.88,-14.679 2.97,0 5.37,3.41 7.36,10.289 8.81,27.41 59.75,97.949 152.83,211.609 66.62,79.36 132.76,158.719 198.42,238.071 79.32,96 119.02,163.6 119.02,202.8 -7.87,3.9 -20.58,17.13 -38.2,39.68 -14.71,18.6 -31.85,28.88 -51.44,30.86 -39.18,3.9 -100.45,-47.53 -183.72,-154.31 -81.3,-102.86 -153.32,-218.964 -215.99,-348.28 -69.61,-141.071 -104.36,-252.29 -104.36,-333.59 0,-76.43 32.82,-114.621 98.46,-114.621 45.04,0 86.21,21.55 123.46,64.64 67.58,77.391 110.21,146.461 127.83,207.223 1.95,4.879 2.95,8.316 2.95,10.297 0,19.57 -15.78,2.422 -47.29,-51.449 -29.55,-49.961 -70.43,-102.872 -122.59,-158.731 -24.65,-26.437 -48.77,-39.648 -72.41,-39.648 -25.58,0 -39.37,18.589 -41.34,55.839 -6.86,148.911 123.36,381.571 390.66,698.04 36.39,43.09 60.45,64.65 72.23,64.65 3.94,0 5.91,-2.46 5.91,-7.35 0,-13.72 -12.75,-39.18 -38.22,-76.41 -19.61,-27.44 -46.07,-61.24 -79.35,-101.39"
         style="fill:#2f3083;fill-opacity:1;fill-rule:nonzero;stroke:none"
         id="path24" /><g
         id="g26"
         transform="scale(10)"><text
           transform="matrix(1,0,0,-1,0,4.29219)"
           style="font-variant:normal;font-weight:bold;font-size:19.2356px;font-family:PerpetuaTitlingMT;-inkscape-font-specification:PerpetuaTitlingMT-Bold;writing-mode:lr-tb;fill:#2f3083;fill-opacity:1;fill-rule:nonzero;stroke:none"
           id="text30"><tspan
             x="0 22.851604 47.704094 69.560104 93.416496 114.249 135.48532 156.72113 173.36472 199.62592 224.47841 240.62392 269.07312 293.92563 319.78201 340.61502 356.7605 377.5925 402.44498 421.86795 447.32202"
             y="0"
             sodipodi:role="line"
             id="tspan28">Travelling Made Easy </tspan></text></g><path
         d="m 2360.8,1604.66 c -2.86,-2.8 -23.08,-21.34 -21.93,-23.39 1.16,-2.04 27.47,5.72 31.34,6.7 5.01,1.29 13.35,-54.67 16.08,-56.29 2.77,-1.62 15.03,5.67 20.4,18.05 5.4,12.38 -1.5,49.98 3.4,53.44 4.88,3.47 112.54,56.36 115.86,55.41 3.35,-0.91 22.95,-37.25 28.27,-54.83 5.31,-17.57 20.06,-114.37 21.98,-117.8 1.9,-3.41 14.24,5.9 19.05,15.19 4.83,9.29 -1.14,131.03 0.47,133.82 6.38,2.29 34.71,16.88 35.61,20.06 0.88,3.18 -9.84,21.93 -12.56,22.26 -2.69,0.33 -18.85,-9.48 -23.05,-12.65 -2.77,0.71 0.74,40.82 4.42,42.89 3.66,2.07 42.9,22.03 67.9,36.5 20.99,12.12 31.8,37.39 30.2,40.26 -1.64,2.88 -28.87,6.64 -50.06,-5.07 -25.32,-13.94 -62.69,-37.26 -66.35,-39.32 -3.61,-2.07 -39.83,15.63 -38.97,18.35 4.87,1.96 21.59,10.72 22.73,13.22 1.08,2.52 -9.43,21.35 -12.63,22.24 -3.19,0.89 -30.26,-15.86 -35.51,-20.13 -3.27,0.04 -104.44,67.98 -114.91,68.64 -10.43,0.66 -24.73,-5.06 -22.83,-8.46 1.94,-3.41 77.25,-66.05 89.54,-79.64 12.34,-13.6 33.32,-49.16 32.38,-52.49 -0.9,-3.36 -101.76,-68.25 -107.24,-70.65 -5.47,-2.39 -34.16,22.89 -47.52,24.68 -13.37,1.8 -25.97,-4.96 -25.98,-8.15 -0.04,-3.2 43.59,-39.24 39.91,-42.84"
         style="fill:#ec1d27;fill-opacity:1;fill-rule:nonzero;stroke:none"
         id="path32" /><path
         d="m 2924.8,1263.55 c -21.8,8.2 -41.5,12.52 -59.18,13 -20.16,-15.28 -39.8,-30.07 -59,-44.34 -25.82,-22.32 -38.52,-40.8 -38.09,-55.49 0.22,-7.86 3.38,-14.61 9.39,-20.32 -77.12,-77.71 -159.33,-184.47 -246.54,-320.279 -106.95,-165.769 -159.24,-289.82 -156.83,-372.062 0.7,-24.477 9.21,-48.739 25.6,-72.789 18.44,-26.891 38.87,-40.032 61.43,-39.379 6.81,0.191 13.16,1.839 18.96,4.968 l -0.33,11.731 c -33.3,-0.961 -50.61,21.109 -51.89,66.14 -3.75,129.258 129.29,340.411 399.19,633.42 24.83,23.25 49.15,46.01 73.03,68.28 35.26,34.32 55.67,57.95 61.17,70.86 1.78,5.93 2.62,11.83 2.45,17.71 -0.43,14.7 -13.58,27.54 -39.36,38.55"
         style="fill:#2f3083;fill-opacity:1;fill-rule:nonzero;stroke:none"
         id="path34" /><path
         d="m 506.547,574.371 c -19.004,-17.551 -51.668,-26.32 -97.988,-26.32 H 271.383 V 736.43 h 136.59 c 47.101,0 80.058,-8.379 98.867,-25.059 18.801,-16.711 28.203,-38.801 28.203,-66.281 0,-29.61 -9.492,-53.192 -28.496,-70.719 z M 271.383,1089.68 h 118.769 c 40.77,0 69.375,-7.61 85.809,-22.83 16.426,-15.22 24.641,-36.37 24.641,-63.42 0,-29.168 -8.215,-51.489 -24.641,-66.922 -16.434,-15.434 -45.633,-23.153 -87.598,-23.153 H 271.383 Z M 773.168,482.73 c 20.988,38.481 31.484,81.821 31.484,130.02 0,59.172 -14.765,108.328 -44.246,147.441 -27.414,36.348 -69.289,62.618 -125.265,79.071 -4.239,1.238 -8.379,2.558 -12.801,3.711 4.402,1.632 8.633,3.351 12.801,5.097 34.894,14.649 61.925,33.633 81.027,57.043 32.059,39.328 48.105,86.457 48.105,141.437 0,65.54 -22.48,120.5 -67.402,164.91 -17.578,17.35 -38.183,31.27 -61.73,41.84 -36.641,16.46 -80.457,24.74 -131.571,24.74 H 0.00390625 V 348.27 H 464.379 c 19.797,0 59.992,4.21 120.547,12.699 18.711,2.59 35.39,5.89 50.215,9.793 21.261,5.578 38.644,12.429 51.933,20.636 36.418,22.391 65.11,52.852 86.094,91.332"
         style="fill:#ec1d27;fill-opacity:1;fill-rule:nonzero;stroke:none"
         id="path36" /><path
         d="M 1548.93,991.391 V 1278.04 H 1278.74 V 952.707 H 984.781 V 1278.04 H 715.777 v -24.74 c 23.543,-10.57 44.141,-24.49 61.719,-41.84 44.93,-44.41 67.402,-99.37 67.402,-164.91 0,-54.98 -16.035,-102.109 -48.105,-141.437 -19.094,-23.41 -46.133,-42.394 -81.016,-57.043 v -8.808 c 55.965,-16.453 97.84,-42.723 125.262,-79.071 29.484,-39.113 44.238,-88.269 44.238,-147.441 0,-48.199 -10.496,-91.539 -31.472,-130.02 -20.989,-38.48 -49.688,-68.941 -86.114,-91.332 -13.281,-8.207 -30.664,-15.058 -51.914,-20.636 V 348.27 H 984.781 V 724.352 H 1278.74 V 348.27 h 270.19 v 0.96 327.629 l 96.93,156.411 -96.93,158.121"
         style="fill:#2f3083;fill-opacity:1;fill-rule:nonzero;stroke:none"
         id="path38" /><path
         d="m 2215.35,1060 c -46.87,-13.6 -75,-16.5 -80.01,-16.93 l -3.39,-0.47 -5.79,-0.71 c -4.29,-0.55 -8.61,-1.09 -12.99,-1.4 l -8.87,-0.74 c -2.59,-0.2 -5.07,-0.31 -7.55,-0.41 l -2.46,-0.12 c -5,-0.26 -10.17,-0.39 -15.39,-0.39 -8.24,0 -16.81,0.33 -25.45,1 l -10.71,0.99 -8.62,1.25 c -23.47,0.04 -58.67,13.59 -77.86,26.15 -3.38,2.23 -6.65,4.66 -9.81,7.26 l -49.39,-83.167 -153.95,285.727 H 1622.85 V 991.391 L 1719.78,833.27 1622.85,676.859 V 349.23 h 97.12 l 171.74,298.399 171.75,-298.399 h 301.95 L 2069.21,828.211 2215.35,1060"
         style="fill:#ec1d27;fill-opacity:1;fill-rule:nonzero;stroke:none"
         id="path40" /><path
         d="m 2022.84,1222.21 c 20.63,-3.34 63.82,-9.49 101.31,-9.49 8.3,0 15.91,0.31 22.64,0.91 37.66,3.4 87.78,11.96 148.93,25.41 9.39,2.07 19.11,4.28 29.07,6.58 l 26.14,32.42 h -293.02 l -35.07,-55.83"
         style="fill:#ec1d27;fill-opacity:1;fill-rule:nonzero;stroke:none"
         id="path42" /><path
         d="m 3304.33,1268.65 c -9.24,26.6 -42.91,64.91 -77.71,81.55 -16.92,8.33 -47,15.29 -90.28,20.91 -25.62,4.15 -54.57,5.77 -86.89,4.84 -89.12,-2.57 -205.67,-22.62 -349.63,-60.08 -92.38,-25.24 -184.75,-50.92 -277.11,-77.11 -49.22,-12.87 -93.63,-23.64 -133.3,-32.37 -62.28,-13.71 -112.9,-22.34 -151.7,-25.85 -51.04,-4.58 -125.28,7.92 -140.59,10.66 -6.77,1.29 -12.21,2.47 -15.02,3.33 l -17.96,8.03 c 1.07,3.71 2.25,7.41 3.62,11.09 4.66,12.59 10.81,24.94 17.8,37.04 7.01,12.09 15.2,23.74 23.85,35.19 8.71,11.44 18.26,22.42 28.11,33.25 19.88,21.59 41.72,41.95 64.68,61.39 11.56,9.62 23.37,19.12 35.54,28.2 l 9.07,6.88 9.28,6.7 c 6.12,4.51 12.41,8.82 18.74,13.13 12.61,8.62 25.44,16.99 38.42,25.12 6.49,4.08 12.99,7.9 19.51,11.86 l 20.28,11.75 20,11.05 c 6.78,3.54 13.55,7.2 20.39,10.67 13.69,6.88 27.44,13.63 41.33,19.98 4.38,1.99 8.73,3.94 13.09,5.88 -4.1,18.81 -8.56,36.75 -11.92,35.89 -1.85,-0.48 -7.52,-2.09 -14.12,-3.88 -1.1,-0.48 -2.22,-0.95 -3.31,-1.43 -7.36,-3.08 -14.55,-6.52 -21.83,-9.81 -7.26,-3.33 -14.34,-6.99 -21.54,-10.46 -7.13,-3.57 -14.19,-7.32 -21.29,-11 l -21.22,-11.58 -20.35,-11.87 c -6.85,-4.24 -13.81,-8.39 -20.57,-12.68 -13.47,-8.58 -26.8,-17.34 -39.75,-26.62 -6.53,-4.65 -12.98,-9.27 -19.31,-14.09 l -9.54,-7.18 -9.37,-7.36 c -12.48,-9.81 -24.47,-20.19 -36.31,-30.62 -5.8,-5.36 -11.67,-10.61 -17.38,-16.09 -5.61,-5.51 -11.28,-10.93 -16.7,-16.63 -11.01,-11.19 -21.44,-22.88 -31.5,-34.78 -9.82,-12.11 -19.34,-24.39 -28.05,-37.18 -8.63,-12.87 -16.79,-25.98 -23.79,-39.71 -7.01,-13.73 -13.04,-27.96 -17.38,-42.8 -0.85,-2.86 -1.57,-5.77 -2.28,-8.67 l -8.88,3.96 c -0.08,2.58 -0.13,5.16 0,7.77 0.66,12.62 3.77,25.49 8.42,38.08 4.69,12.57 10.79,24.93 17.79,37.02 7.02,12.08 15.22,23.75 23.86,35.21 8.72,11.43 18.26,22.41 28.09,33.25 19.88,21.58 41.75,41.93 64.7,61.4 11.58,9.62 23.38,19.1 35.55,28.19 l 9.08,6.88 9.26,6.69 c 6.13,4.51 12.44,8.82 18.72,13.14 12.62,8.6 25.47,16.98 38.45,25.13 6.48,4.06 12.99,7.89 19.49,11.85 l 20.33,11.74 19.95,11.04 c 6.79,3.54 13.55,7.22 20.39,10.67 13.7,6.89 27.43,13.65 41.35,20 0.08,0.03 0.17,0.07 0.27,0.1 6.88,6.78 14.01,13.42 15.84,15.22 2.28,2.23 -8.77,13.63 -21.52,25.8 -3.62,-1.52 -7.25,-3.09 -10.88,-4.66 -7.34,-3.1 -14.52,-6.52 -21.82,-9.81 -7.25,-3.33 -14.33,-6.98 -21.53,-10.48 -7.15,-3.56 -14.18,-7.33 -21.3,-10.98 l -21.23,-11.58 -20.33,-11.88 c -6.86,-4.23 -13.82,-8.38 -20.58,-12.67 -13.46,-8.57 -26.8,-17.34 -39.78,-26.64 -6.47,-4.62 -12.96,-9.25 -19.27,-14.08 l -9.53,-7.17 -9.37,-7.37 c -12.47,-9.82 -24.49,-20.17 -36.31,-30.63 -5.82,-5.36 -11.69,-10.6 -17.36,-16.07 -5.64,-5.53 -11.31,-10.95 -16.73,-16.64 -10.98,-11.17 -21.44,-22.88 -31.47,-34.77 -9.85,-12.11 -19.37,-24.38 -28.09,-37.2 -8.62,-12.85 -16.76,-25.96 -23.77,-39.71 -7.01,-13.73 -13.03,-27.97 -17.41,-42.79 -4.35,-14.78 -7.1,-30.24 -6.85,-45.94 0.15,-13.19 2.86,-26.5 8.06,-38.68 4.76,-24.04 13.31,-44.95 25.82,-62.6 7.71,-11.01 16.61,-19.65 26.62,-26.19 18.22,-11.92 50.28,-23.13 67.19,-22.52 3.27,-0.48 6.56,-0.97 9.85,-1.44 3.25,-0.31 6.52,-0.59 9.75,-0.88 12.98,-1.01 25.69,-1.24 38.09,-0.57 3.09,0.14 6.19,0.23 9.25,0.47 3.05,0.24 6.1,0.53 9.12,0.77 6.07,0.42 12,1.37 17.89,2.02 0.33,0.04 0.63,0.12 0.96,0.16 l 2.55,0.33 c 0,0 33.36,2.35 93.32,21.37 v 0 c 9.72,2.97 19.11,6.03 28.15,9.09 65.1,18.51 147.44,39.74 259.49,77.35 211.58,71.76 379.24,119.87 503.65,123.46 148.87,4.3 224.2,-25.85 226.08,-90.49 1.46,-50.94 -27.13,-95.87 -85.79,-134.8 -7.71,-5.13 -10.97,-10.61 -9.78,-16.45 1.09,-5.86 3.14,-8.25 6.05,-7.18 28.99,14.56 45.57,16.79 61.02,25.17 14.45,7.83 45.27,30.14 58.4,40.02 11.58,8.74 30.66,32.64 34.69,46.58 1.23,4.3 2.26,13.25 2.4,17.71 0.68,20.23 0.27,61.58 -6.37,80.69"
         style="fill:#2f3083;fill-opacity:1;fill-rule:nonzero;stroke:none"
         id="path44" /></g></g></svg>
